<svg xmlns="http://www.w3.org/2000/svg" width="682.667" height="682.667" viewBox="0 0 512 512" preserveAspectRatio="xMidYMid meet" xmlns:v="https://vecta.io/nano"><path fill="#8a8a8a" d="M34.3 61.5C17.3 66.1 4.2 80 1 96.9-.4 104.3-.4 407.7 1 415.1c3.2 16.9 15.6 30.2 32.9 35.3 5 1.4 25.8 1.6 222.1 1.6l222.1-1.6c17.4-5.2 29.8-18.5 32.9-35.5.7-3.7.9-49.9.7-136.5-.3-145.4.3-134.3-7-145.6-7.1-11.1-19.2-19-31.9-20.8-3.5-.5-53.1-1-110.3-1l-104-.1L240 88.8l-21.6-25.5-3.1-3.3-87.9.1c-72.3 0-88.8.3-93.1 1.4z"/></svg>