<svg xmlns="http://www.w3.org/2000/svg" width="682.667" height="682.667" viewBox="0 0 512 512" preserveAspectRatio="xMidYMid meet" xmlns:v="https://vecta.io/nano"><path fill="#8a8a8a" d="M93.7 1.1C79.4 4.5 67.1 18.2 65.3 32.9l-.6 5.1h90.6c89.8 0 90.7 0 96.4 2.1 5.5 2 10.5 6.8 112.4 108.6l106.6 106.4 3.6-4c10.4-11.5 13-27.6 6.7-41.8-1.7-3.9-20.1-22.9-100.8-103.6L277.5 4.8c-9.2-4.8-8.9-4.8-97-4.7l-86.8 1zm-36.6 75c-6.8 1.3-13.2 4.9-18.6 10.4-5.9 6-9.2 12.3-10.5 20.2-1.3 7.7-1.3 160.9 0 168.6 2.2 13.9-3.5 7.6 112.3 123.4C239.6 498 246.9 505.1 253 507.9c11.4 5.4 23.4 5.1 34.1-.6 3.1-1.7 30.9-28.8 88.1-86.1 92.2-92.4 87.5-87.1 88.6-101.3.6-8.1-1.7-16.4-6.3-23.4-1.9-2.7-50.8-52.3-108.7-110.1C249.4 87.3 243.1 81.2 237 78.4l-6.5-2.9-84.5-.2-88.9.8zm85.4 77c21.4 11 20.9 41.1-.9 51-5.6 2.5-16.6 2.5-22.2 0-20.8-9.5-22.5-37.3-3.1-49.7 7.4-4.8 18.3-5.3 26.2-1.3z"/></svg>